<svg xmlns="http://www.w3.org/2000/svg" viewBox="0 0 243 224"><defs><style>.cls-1{fill:#f2f2f2;}.cls-2{fill:#00a6e6;}.cls-3{fill:#00458d;}</style></defs><title>Recurso 1</title><g id="Capa_2" data-name="Capa 2"><g id="Capa_1-2" data-name="Capa 1"><rect class="cls-1" width="243" height="224" rx="112"/><path class="cls-2" d="M184,159.65v14.7a8.82,8.82,0,0,1-8.82,8.82H110.46a8.82,8.82,0,0,1-8.82-8.82v-14.7Z"/><path class="cls-2" d="M184,56.76V59.7H168.14a3,3,0,0,0-2.65,1.62l-.5,1a5.88,5.88,0,0,1-5.26,3.26H125.86a5.9,5.9,0,0,1-5.26-3.26l-.5-1a2.93,2.93,0,0,0-2.64-1.62H101.64V56.76a8.82,8.82,0,0,1,8.82-8.82h64.68A8.82,8.82,0,0,1,184,56.76Z"/><path class="cls-3" d="M148.68,174.35H136.92a2.94,2.94,0,0,1,0-5.88h11.76a2.94,2.94,0,0,1,0,5.88Z"/><path class="cls-3" d="M181,171.41a8.82,8.82,0,0,1-8.82,8.82H113.4a8.82,8.82,0,0,1-8.82-8.82v-5.88a2.94,2.94,0,0,1,2.94-2.94h70.56a2.94,2.94,0,0,1,2.94,2.94ZM98.7,150.83v20.58a14.7,14.7,0,0,0,14.7,14.7h58.8a14.7,14.7,0,0,0,14.7-14.7V59.7A14.7,14.7,0,0,0,172.2,45H113.4A14.7,14.7,0,0,0,98.7,59.7V86.06A2.94,2.94,0,0,0,101.64,89h0a2.94,2.94,0,0,0,2.94-2.94V65.58a2.94,2.94,0,0,1,2.94-2.94h9.94l.5,1a8.82,8.82,0,0,0,7.9,4.88h33.87a8.83,8.83,0,0,0,7.91-4.88l.5-1h9.94A2.94,2.94,0,0,1,181,65.58v88.19a2.94,2.94,0,0,1-2.94,2.94H107.52a2.94,2.94,0,0,1-2.94-2.94v-2.94a2.94,2.94,0,0,0-2.94-2.94h0A2.94,2.94,0,0,0,98.7,150.83Zm69.44-94.07A5.87,5.87,0,0,0,162.88,60c-.62,1.21-1.15,2.62-3.15,2.62H125.86A2.93,2.93,0,0,1,123.22,61l-.5-1a5.87,5.87,0,0,0-5.26-3.26h-7.18c-3.63,0-4.06-5.47-.44-5.85.2,0,.41,0,.62,0h64.68c.21,0,.41,0,.62,0,3.61.38,3.19,5.85-.44,5.85Z"/><path class="cls-2" d="M154,76.9a16.9,16.9,0,1,0,16.89,16.9A16.9,16.9,0,0,0,154,76.9Zm10.44,13.24L153.21,101.4a2.8,2.8,0,0,1-2,.84c-1.52,0-1.57-.42-7.63-6.47a2.82,2.82,0,0,1,4-4l0,0,3.63,3.63,9.27-9.26a2.8,2.8,0,0,1,4,0v0A2.8,2.8,0,0,1,164.47,90.14Z"/><path id="suv" class="cls-3" d="M136.81,122.08l-3.25-9.81a3.3,3.3,0,0,0-2.28-2.15l-17-4L93.72,93.81A16.59,16.59,0,0,0,84,90.56H42.77a3.28,3.28,0,0,0-2.93,1.75l-6.5,13.07a3.6,3.6,0,0,0-.32,1.43v22.74a3.25,3.25,0,0,0,1.82,2.93l6.5,3.25a3.6,3.6,0,0,0,1.43.32h2.79a11.26,11.26,0,0,0,20.41,0h38.08a11.26,11.26,0,0,0,20.41,0h6a3.17,3.17,0,0,0,3.06-2.21l3.25-9.75A2.79,2.79,0,0,0,136.81,122.08Zm-58.3-15.29H59.72l2-9.73H78.51l5.52,0a9.77,9.77,0,0,1,2.47.3,10.38,10.38,0,0,1,3.58,1.79l12.72,7.59H78.51ZM44.78,97.06H55l-1.95,9.73H39.91Zm6.11,34.17a4.48,4.48,0,0,1,.32-1.68,4.8,4.8,0,0,1,4.55-3.25,4.86,4.86,0,0,1,4.55,3.25,4.43,4.43,0,0,1,.33,1.63,4.87,4.87,0,0,1-5,4.87A5,5,0,0,1,50.89,131.23Zm58.49,0a4.64,4.64,0,0,1,.32-1.63,4.81,4.81,0,0,1,9.1,0,4.43,4.43,0,0,1,.33,1.63,4.88,4.88,0,0,1-9.75,0Zm18.78-1.63h-2.73a11.28,11.28,0,0,0-22.35,0H66.94a11.28,11.28,0,0,0-22.35,0h-1l-4-2V113.29h76.89l0,0L128,116l1.46,4.39a8.34,8.34,0,0,1,0,5.25Z"/></g></g></svg>